<?xml version="1.0" standalone="no"?><!DOCTYPE svg PUBLIC "-//W3C//DTD SVG 1.1//EN" "http://www.w3.org/Graphics/SVG/1.1/DTD/svg11.dtd"><svg class="icon" width="200px" height="200.00px" viewBox="0 0 1024 1024" version="1.1" xmlns="http://www.w3.org/2000/svg"><path fill="#1296db" d="M810.666667 512c46.634667 0 90.325333 12.458667 128 34.261333V256a42.666667 42.666667 0 0 0-42.666667-42.666667h-366.336l-85.333333-85.333333H128a42.666667 42.666667 0 0 0-42.666667 42.666667v682.666666a42.666667 42.666667 0 0 0 42.666667 42.666667h460.928A256 256 0 0 1 810.666667 512z m60.330666 256l90.538667 90.496-60.373333 60.330667-90.453334-90.453334-90.538666 90.453334-60.330667-60.330667L750.293333 768l-90.453333-90.496 60.330667-60.373333L810.666667 707.669333l90.496-90.538666 60.373333 60.373333-90.538667 90.453333z"  /></svg>