<svg width="1057" height="1024" xmlns="http://www.w3.org/2000/svg" p-id="27766" version="1.1" class="icon" t="1646226693026">

 <g>
  <title>Layer 1</title>
  <path id="svg_1" fill="#024089" p-id="27767" d="m854.44156,1024l-651.63636,0c-111.7091,0 -202.8052,-91.0961 -202.8052,-202.8052l0,-618.3896c0,-111.7091 91.0961,-202.8052 202.80519,-202.8052l651.63637,0c111.70909,0 202.80519,91.0961 202.80519,202.80519l0,618.38961c0,111.7091 -91.0961,202.8052 -202.80519,202.8052zm-651.63636,-1004.05195c-101.07013,0 -182.85715,81.78702 -182.85715,182.85714l0,618.38961c0,101.07014 81.78702,182.85715 182.85714,182.85715l651.63637,0c101.07013,0 182.85714,-81.78701 182.85714,-182.85714l0,-618.38961c0,-101.07013 -81.78701,-182.85715 -182.85714,-182.85715l-651.63636,0z"/>
  <text transform="matrix(24.1738 0 0 21.373 -3394.93 -2488.55)" stroke="null" xml:space="preserve" text-anchor="start" font-family="Noto Sans JP" font-size="35" id="svg_5" y="150.00311" x="146.41552" stroke-width="0" fill="#000000"/>
  <text font-style="italic" font-weight="bold" transform="matrix(3.92706 0 0 3.35378 -643.275 -844.511)" stroke="null" xml:space="preserve" text-anchor="start" font-family="'Open Sans'" font-size="250" stroke-width="0" id="svg_7" y="490.0074" x="174.56405" fill="#024089">Li</text>
 </g>
</svg>