<?xml version="1.0" standalone="no"?><!DOCTYPE svg PUBLIC "-//W3C//DTD SVG 1.1//EN" "http://www.w3.org/Graphics/SVG/1.1/DTD/svg11.dtd"><svg class="icon" width="200px" height="200.00px" viewBox="0 0 1024 1024" version="1.1" xmlns="http://www.w3.org/2000/svg"><path d="M0 0m0 0l1024 0q0 0 0 0l0 1024q0 0 0 0l-1024 0q0 0 0 0l0-1024q0 0 0 0Z" fill="#E8EFF8" /><path d="M209.454545 814.545455c115.339636-91.648 223.883636-90.996364 325.818182 0V256c-104.541091-54.946909-212.48-63.883636-325.818182 0v558.545455z" fill="#9AB8EE" /><path d="M488.727273 764.416c0 19.479273 22.760727 30.650182 39.307636 20.386909 85.410909-52.945455 167.005091-54.039273 244.875636-4.072727 16.919273 10.845091 41.634909 0.046545 41.63491-20.061091V268.148364a22.807273 22.807273 0 0 0-12.660364-20.48c-96.861091-47.313455-196.701091-54.411636-301.056-0.139637a22.737455 22.737455 0 0 0-12.101818 20.154182v496.733091z" fill="#247ADE" /><path d="M837.818182 698.181818a116.363636 116.363636 0 1 1-232.727273 0 116.363636 116.363636 0 0 1 232.727273 0z" fill="#62BC86" /></svg>