<?xml version="1.0" standalone="no"?><!DOCTYPE svg PUBLIC "-//W3C//DTD SVG 1.1//EN" "http://www.w3.org/Graphics/SVG/1.1/DTD/svg11.dtd"><svg class="icon" width="200px" height="200.00px" viewBox="0 0 1024 1024" version="1.1" xmlns="http://www.w3.org/2000/svg"><path d="M0 0m0 0l1024 0q0 0 0 0l0 1024q0 0 0 0l-1024 0q0 0 0 0l0-1024q0 0 0 0Z" fill="#E8EFF8" /><path d="M116.363636 605.090909a69.818182 69.818182 0 0 0 69.818182 69.818182h628.363637a69.818182 69.818182 0 1 0 0-139.636364H186.181818a69.818182 69.818182 0 0 0-69.818182 69.818182z" fill="#247ADE" /><path d="M768 605.090909a46.545455 46.545455 0 1 1 93.090909 0 46.545455 46.545455 0 0 1-93.090909 0zM139.636364 605.090909a46.545455 46.545455 0 1 1 93.090909 0 46.545455 46.545455 0 0 1-93.090909 0z" fill="#A0BFF7" /><path d="M768 372.363636c0-12.846545-2.280727-23.272727-5.096727-23.272727H610.210909c-2.816 0-5.096727 10.426182-5.096727 23.272727v116.363637c0 12.846545 2.280727 23.272727 5.096727 23.272727h152.715636c2.816 0 5.096727-10.426182 5.096728-23.272727v-116.363637z" fill="#69CB91" /><path d="M395.636364 372.363636c0-12.846545-2.280727-23.272727-5.096728-23.272727H237.847273c-2.816 0-5.096727 10.426182-5.096728 23.272727v116.363637c0 12.846545 2.280727 23.272727 5.096728 23.272727h152.715636c2.816 0 5.096727-10.426182 5.096727-23.272727v-116.363637z" fill="#A0BFF7" /></svg>