<?xml version="1.0" standalone="no"?><!DOCTYPE svg PUBLIC "-//W3C//DTD SVG 1.1//EN" "http://www.w3.org/Graphics/SVG/1.1/DTD/svg11.dtd"><svg class="icon" width="200px" height="200.00px" viewBox="0 0 1024 1024" version="1.1" xmlns="http://www.w3.org/2000/svg"><path d="M0 0m0 0l1024 0q0 0 0 0l0 1024q0 0 0 0l-1024 0q0 0 0 0l0-1024q0 0 0 0Z" fill="#E8EFF8" /><path d="M256 251.019636C256 228.049455 272.384 209.454545 292.561455 209.454545h182.87709C495.616 209.454545 512 228.072727 512 251.019636v498.688c0 22.970182-16.384 41.565091-36.561455 41.565091H292.538182C272.384 791.272727 256 772.654545 256 749.707636V251.019636z" fill="#68C98F" /><path d="M512 359.074909c0-18.385455 16.384-33.256727 36.561455-33.256727h182.87709c20.177455 0 36.561455 14.894545 36.561455 33.256727V757.992727c0 18.385455-16.384 33.256727-36.561455 33.256728H548.538182C528.384 791.272727 512 776.378182 512 758.016V359.098182z" fill="#2478D9" /><path d="M162.909091 754.036364c0-5.12 10.426182-9.309091 23.272727-9.309091h651.636364c12.846545 0 23.272727 4.189091 23.272727 9.309091v27.927272c0 5.12-10.426182 9.309091-23.272727 9.309091H186.181818c-12.846545 0-23.272727-4.189091-23.272727-9.309091v-27.927272z" fill="#9EBDF3" /></svg>