<?xml version="1.0" standalone="no"?><!DOCTYPE svg PUBLIC "-//W3C//DTD SVG 1.1//EN" "http://www.w3.org/Graphics/SVG/1.1/DTD/svg11.dtd"><svg class="icon" width="200px" height="200.00px" viewBox="0 0 1024 1024" version="1.1" xmlns="http://www.w3.org/2000/svg"><path d="M0 0m0 0l1024 0q0 0 0 0l0 1024q0 0 0 0l-1024 0q0 0 0 0l0-1024q0 0 0 0Z" fill="#E8EFF8" /><path d="M395.636364 395.636364a69.818182 69.818182 0 1 1-139.636364 0 69.818182 69.818182 0 0 1 139.636364 0z" fill="#9DBCF3" /><path d="M581.818182 395.636364a69.818182 69.818182 0 1 1-139.636364 0 69.818182 69.818182 0 0 1 139.636364 0z" fill="#2479DC" /><path d="M768 395.636364a69.818182 69.818182 0 1 1-139.636364 0 69.818182 69.818182 0 0 1 139.636364 0z" fill="#68C98F" /><path d="M139.636364 558.545455a23.272727 23.272727 0 0 1 23.272727-23.272728h698.181818a23.272727 23.272727 0 0 1 23.272727 23.272728v116.363636a23.272727 23.272727 0 0 1-23.272727 23.272727H162.909091a23.272727 23.272727 0 0 1-23.272727-23.272727v-116.363636z" fill="#247ADE" /></svg>