<?xml version="1.0" standalone="no"?><!DOCTYPE svg PUBLIC "-//W3C//DTD SVG 1.1//EN" "http://www.w3.org/Graphics/SVG/1.1/DTD/svg11.dtd"><svg class="icon" width="200px" height="200.00px" viewBox="0 0 1024 1024" version="1.1" xmlns="http://www.w3.org/2000/svg"><path d="M0 0m0 0l1024 0q0 0 0 0l0 1024q0 0 0 0l-1024 0q0 0 0 0l0-1024q0 0 0 0Z" fill="#E8EFF8" /><path d="M139.636364 279.272727a23.272727 23.272727 0 0 1 23.272727-23.272727h698.181818a23.272727 23.272727 0 0 1 23.272727 23.272727v442.181818a23.272727 23.272727 0 0 1-23.272727 23.272728H162.909091a23.272727 23.272727 0 0 1-23.272727-23.272728V279.272727z" fill="#A0BFF7" /><path d="M139.636364 418.909091a23.272727 23.272727 0 0 1 23.272727-23.272727h558.545454a23.272727 23.272727 0 0 1 23.272728 23.272727v302.545454a23.272727 23.272727 0 0 1-23.272728 23.272728H162.909091a23.272727 23.272727 0 0 1-23.272727-23.272728V418.909091z" fill="#69CB91" /><path d="M139.636364 558.545455a23.272727 23.272727 0 0 1 23.272727-23.272728h372.363636a23.272727 23.272727 0 0 1 23.272728 23.272728v162.90909a23.272727 23.272727 0 0 1-23.272728 23.272728H162.909091a23.272727 23.272727 0 0 1-23.272727-23.272728v-162.90909z" fill="#247ADE" /></svg>