<?xml version="1.0" standalone="no"?><!DOCTYPE svg PUBLIC "-//W3C//DTD SVG 1.1//EN" "http://www.w3.org/Graphics/SVG/1.1/DTD/svg11.dtd"><svg class="icon" width="200px" height="200.00px" viewBox="0 0 1024 1024" version="1.1" xmlns="http://www.w3.org/2000/svg"><path d="M0 0m0 0l1024 0q0 0 0 0l0 1024q0 0 0 0l-1024 0q0 0 0 0l0-1024q0 0 0 0Z" fill="#E8EFF8" /><path d="M171.403636 608.651636c-19.432727 8.727273-17.92 36.770909 2.350546 43.333819l317.393454 102.981818c4.701091 1.512727 9.728 1.512727 14.429091 0l340.712728-110.731637c20.736-6.749091 21.643636-35.700364 1.396363-43.752727L507.508364 465.454545a23.319273 23.319273 0 0 0-18.152728 0.395637L171.426909 608.651636z" fill="#9AB8ED" /><path d="M171.403636 480.186182c-19.432727 8.727273-17.92 36.770909 2.350546 43.333818l317.393454 102.981818c4.701091 1.512727 9.728 1.512727 14.429091 0l340.712728-110.754909c20.736-6.749091 21.643636-35.677091 1.396363-43.729454L507.508364 336.989091a23.319273 23.319273 0 0 0-18.152728 0.395636L171.426909 480.186182z" fill="#69CA90" /><path d="M171.403636 351.720727c-19.432727 8.727273-17.92 36.770909 2.350546 43.333818L491.147636 498.036364c4.701091 1.512727 9.728 1.512727 14.429091 0l340.712728-110.754909c20.736-6.749091 21.643636-35.677091 1.396363-43.729455L507.508364 208.523636a23.319273 23.319273 0 0 0-18.152728 0.395637L171.426909 351.720727z" fill="#247ADE" /></svg>