<?xml version="1.0" standalone="no"?><!DOCTYPE svg PUBLIC "-//W3C//DTD SVG 1.1//EN" "http://www.w3.org/Graphics/SVG/1.1/DTD/svg11.dtd"><svg class="icon" width="200px" height="200.00px" viewBox="0 0 1024 1024" version="1.1" xmlns="http://www.w3.org/2000/svg"><path d="M0 0m0 0l1024 0q0 0 0 0l0 1024q0 0 0 0l-1024 0q0 0 0 0l0-1024q0 0 0 0Z" fill="#E8EFF8" /><path d="M521.076364 366.173091l216.994909 361.611636 59.857454-35.933091L526.196364 238.917818 204.334545 689.524364l56.832 40.587636 259.956364-363.938909z" fill="#A0BFF7" /><path d="M884.363636 698.181818a116.363636 116.363636 0 1 1-232.727272 0 116.363636 116.363636 0 0 1 232.727272 0zM349.090909 698.181818a116.363636 116.363636 0 1 1-232.727273 0 116.363636 116.363636 0 0 1 232.727273 0z" fill="#247ADE" /><path d="M628.363636 302.545455a116.363636 116.363636 0 1 1-232.727272 0 116.363636 116.363636 0 0 1 232.727272 0z" fill="#69CB91" /></svg>