<?xml version="1.0" standalone="no"?><!DOCTYPE svg PUBLIC "-//W3C//DTD SVG 1.1//EN" "http://www.w3.org/Graphics/SVG/1.1/DTD/svg11.dtd"><svg class="icon" width="200px" height="200.00px" viewBox="0 0 1024 1024" version="1.1" xmlns="http://www.w3.org/2000/svg"><path d="M0 0m0 0l1024 0q0 0 0 0l0 1024q0 0 0 0l-1024 0q0 0 0 0l0-1024q0 0 0 0Z" fill="#E8EFF8" /><path d="M407.272727 628.363636a221.090909 221.090909 0 1 0 0-442.181818 221.090909 221.090909 0 0 0 0 442.181818z" fill="#69CB91" /><path d="M837.818182 442.181818a23.272727 23.272727 0 0 0-23.272727-23.272727H442.181818a23.272727 23.272727 0 0 0-23.272727 23.272727v372.363637a23.272727 23.272727 0 0 0 23.272727 23.272727h372.363637a23.272727 23.272727 0 0 0 23.272727-23.272727V442.181818z" fill="#247ADE" /></svg>