<?xml version="1.0" standalone="no"?><!DOCTYPE svg PUBLIC "-//W3C//DTD SVG 1.1//EN" "http://www.w3.org/Graphics/SVG/1.1/DTD/svg11.dtd"><svg t="1759888707438" class="icon" viewBox="0 0 1024 1024" version="1.1" xmlns="http://www.w3.org/2000/svg" p-id="22581" xmlns:xlink="http://www.w3.org/1999/xlink" width="200" height="200"><path d="M704 592v-192a96 96 0 0 0-96-96h-192a96 96 0 0 0-96 96v192a96 96 0 0 0 96 96h192a96 96 0 0 0 96-96z m-64 0a32 32 0 0 1-32 32h-192a32 32 0 0 1-32-32v-192a32 32 0 0 1 32-32h192a32 32 0 0 1 32 32zM669.44 749.44v128h64v-128a32 32 0 0 1 32-32h128v-64h-128a96 96 0 0 0-96 96zM258.56 653.44h-128v64h128a32 32 0 0 1 32 32v128h64v-128a96 96 0 0 0-96-96zM354.56 242.24v-128h-64v128a32 32 0 0 1-32 32h-128v64h128a96 96 0 0 0 96-96zM765.44 274.24a32 32 0 0 1-32-32v-128h-64v128a96 96 0 0 0 96 96h128v-64z" p-id="22582"></path></svg>