<?xml version="1.0" standalone="no"?><!DOCTYPE svg PUBLIC "-//W3C//DTD SVG 1.1//EN" "http://www.w3.org/Graphics/SVG/1.1/DTD/svg11.dtd"><svg class="icon" width="200px" height="200.00px" viewBox="0 0 1024 1024" version="1.1" xmlns="http://www.w3.org/2000/svg"><path d="M0 0m0 0l1024 0q0 0 0 0l0 1024q0 0 0 0l-1024 0q0 0 0 0l0-1024q0 0 0 0Z" fill="#E8EFF8" /><path d="M884.363636 651.636364a23.272727 23.272727 0 0 0-23.272727-23.272728H162.909091a23.272727 23.272727 0 0 0-23.272727 23.272728v116.363636a23.272727 23.272727 0 0 0 23.272727 23.272727h698.181818a23.272727 23.272727 0 0 0 23.272727-23.272727v-116.363636z" fill="#247ADE" /><path d="M768 442.181818c0-12.846545-12.613818-23.272727-28.16-23.272727H260.887273c-15.546182 0-28.16 10.426182-28.16 23.272727v116.363637c0 12.846545 12.613818 23.272727 28.16 23.272727h478.952727c15.546182 0 28.16-10.426182 28.16-23.272727v-116.363637z" fill="#A0BFF7" /><path d="M349.090909 232.727273c0-12.846545 7.68-23.272727 17.152-23.272728h291.514182c9.472 0 17.152 10.426182 17.152 23.272728v116.363636c0 12.846545-7.68 23.272727-17.152 23.272727H366.242909c-9.472 0-17.152-10.426182-17.152-23.272727v-116.363636z" fill="#69CB91" /></svg>