<?xml version="1.0" standalone="no"?><!DOCTYPE svg PUBLIC "-//W3C//DTD SVG 1.1//EN" "http://www.w3.org/Graphics/SVG/1.1/DTD/svg11.dtd"><svg t="1759889468472" class="icon" viewBox="0 0 1024 1024" version="1.1" xmlns="http://www.w3.org/2000/svg" p-id="26110" xmlns:xlink="http://www.w3.org/1999/xlink" width="200" height="200"><path d="M917.333333 0h-810.666666C46.933333 0 0 46.933333 0 106.666667v810.666666C0 977.066667 46.933333 1024 106.666667 1024h810.666666c59.733333 0 106.666667-46.933333 106.666667-106.666667v-810.666666C1024 46.933333 977.066667 0 917.333333 0zM247.466667 85.333333h529.066666v277.333334c0 17.066667-12.8 29.866667-29.866666 29.866666h-469.333334c-17.066667 0-29.866667-12.8-29.866666-29.866666V85.333333zM938.666667 917.333333c0 12.8-8.533333 21.333333-21.333334 21.333334h-810.666666c-12.8 0-21.333333-8.533333-21.333334-21.333334v-810.666666c0-12.8 8.533333-21.333333 21.333334-21.333334h72.533333v277.333334c0 55.466667 42.666667 98.133333 98.133333 98.133333h469.333334c55.466667 0 98.133333-42.666667 98.133333-98.133333V85.333333h72.533333c12.8 0 21.333333 8.533333 21.333334 21.333334v810.666666z" fill="#221E1F" p-id="26111"></path><path d="M652.8 341.333333c25.6 0 42.666667-17.066667 42.666667-42.666666V170.666667c0-25.6-17.066667-42.666667-42.666667-42.666667s-42.666667 17.066667-42.666667 42.666667v128c0 25.6 17.066667 42.666667 42.666667 42.666666z" fill="#221E1F" p-id="26112"></path></svg>