<?xml version="1.0" standalone="no"?><!DOCTYPE svg PUBLIC "-//W3C//DTD SVG 1.1//EN" "http://www.w3.org/Graphics/SVG/1.1/DTD/svg11.dtd"><svg class="icon" width="200px" height="200.00px" viewBox="0 0 1024 1024" version="1.1" xmlns="http://www.w3.org/2000/svg"><path d="M0 0m0 0l1024 0q0 0 0 0l0 1024q0 0 0 0l-1024 0q0 0 0 0l0-1024q0 0 0 0Z" fill="#E8EFF8" /><path d="M768 884.363636V139.636364L279.272727 535.272727l488.727273 349.090909z" fill="#247ADE" /><path d="M306.036364 423.912727c-30.836364-21.690182-73.309091 0.372364-73.309091 38.074182v162.862546c0 38.981818 45.056 60.695273 75.543272 36.398545l108.590546-86.528a46.545455 46.545455 0 0 0-2.234182-74.472727l-108.590545-76.334546z" fill="#68C98F" /></svg>