<?xml version="1.0" standalone="no"?><!DOCTYPE svg PUBLIC "-//W3C//DTD SVG 1.1//EN" "http://www.w3.org/Graphics/SVG/1.1/DTD/svg11.dtd"><svg class="icon" width="200px" height="200.00px" viewBox="0 0 1024 1024" version="1.1" xmlns="http://www.w3.org/2000/svg"><path d="M0 0m0 0l1024 0q0 0 0 0l0 1024q0 0 0 0l-1024 0q0 0 0 0l0-1024q0 0 0 0Z" fill="#E8EFF8" /><path d="M161.349818 523.101091A23.272727 23.272727 0 0 0 181.201455 558.545455h426.426181a23.272727 23.272727 0 0 0 19.223273-36.375273l-204.171636-299.752727a46.545455 46.545455 0 0 0-78.149818 1.861818l-183.156364 298.821818z" fill="#69CB91" /><path d="M861.090909 512a23.272727 23.272727 0 0 0-23.272727-23.272727H512a23.272727 23.272727 0 0 0-23.272727 23.272727v325.818182a23.272727 23.272727 0 0 0 23.272727 23.272727h325.818182a23.272727 23.272727 0 0 0 23.272727-23.272727V512z" fill="#247ADE" /><path d="M884.363636 290.909091a151.272727 151.272727 0 1 1-302.545454 0 151.272727 151.272727 0 0 1 302.545454 0z" fill="#A0BFF7" /></svg>