<?xml version="1.0" standalone="no"?><!DOCTYPE svg PUBLIC "-//W3C//DTD SVG 1.1//EN" "http://www.w3.org/Graphics/SVG/1.1/DTD/svg11.dtd"><svg class="icon" width="200px" height="200.00px" viewBox="0 0 1024 1024" version="1.1" xmlns="http://www.w3.org/2000/svg"><path d="M0 0m0 0l1024 0q0 0 0 0l0 1024q0 0 0 0l-1024 0q0 0 0 0l0-1024q0 0 0 0Z" fill="#E8EFF8" /><path d="M163.444364 534.341818c-19.944727 12.450909-10.938182 43.287273 12.590545 43.008l334.126546-3.723636a23.272727 23.272727 0 0 1 20.945454 12.590545l158.836364 308.084364c10.752 20.875636 42.170182 14.475636 43.892363-8.983273l50.641455-695.156363a23.272727 23.272727 0 0 0-35.560727-21.41091L163.444364 534.341818z" fill="#A0BFF7" /><path d="M837.818182 372.363636a116.363636 116.363636 0 1 1-232.727273 0 116.363636 116.363636 0 0 1 232.727273 0z" fill="#247ADE" /></svg>