<?xml version="1.0" standalone="no"?><!DOCTYPE svg PUBLIC "-//W3C//DTD SVG 1.1//EN" "http://www.w3.org/Graphics/SVG/1.1/DTD/svg11.dtd"><svg class="icon" width="200px" height="200.00px" viewBox="0 0 1024 1024" version="1.1" xmlns="http://www.w3.org/2000/svg"><path d="M0 0m0 0l1024 0q0 0 0 0l0 1024q0 0 0 0l-1024 0q0 0 0 0l0-1024q0 0 0 0Z" fill="#E8EFF8" /><path d="M709.818182 442.368v325.818182h69.818182v-395.636364H214.690909v395.636364h69.818182v-325.818182H709.818182z" fill="#A0BFF7" /><path d="M744.727273 884.363636a116.363636 116.363636 0 1 0 0-232.727272 116.363636 116.363636 0 0 0 0 232.727272zM256 884.363636a116.363636 116.363636 0 1 0 0-232.727272 116.363636 116.363636 0 0 0 0 232.727272z" fill="#247ADE" /><path d="M493.242182 349.090909a116.363636 116.363636 0 1 0 0-232.727273 116.363636 116.363636 0 0 0 0 232.727273z" fill="#69CB91" /></svg>